<svg width="267" height="62" viewBox="0 0 267 62" fill="none" xmlns="http://www.w3.org/2000/svg">
<rect x="1.30163" y="1.30163" width="264.397" height="59.3967" stroke="#FFCC00" stroke-width="1.39673" stroke-linejoin="round"/>
<path d="M45.1483 30.752H39.0525V36.0691H46.0613V37H37.9515V23.967H46.0165V24.9069H39.0525V29.8211H45.1483V30.752ZM49.1137 27.3148L49.1495 28.8902C49.5075 28.3054 49.9551 27.8668 50.4921 27.5744C51.0292 27.2819 51.626 27.1357 52.2824 27.1357C53.8101 27.1357 54.7798 27.7623 55.1915 29.0155C55.5377 28.4128 56.0001 27.9503 56.579 27.6281C57.1578 27.2998 57.7964 27.1357 58.4945 27.1357C60.5712 27.1357 61.6305 28.2696 61.6722 30.5372V37H60.5981V30.6178C60.5921 29.7525 60.4041 29.111 60.0342 28.6933C59.6701 28.2755 59.0734 28.0667 58.2439 28.0667C57.4741 28.0786 56.8237 28.3292 56.2925 28.8186C55.7614 29.3019 55.466 29.8927 55.4064 30.5909V37H54.3322V30.5372C54.3263 29.7077 54.1293 29.0901 53.7414 28.6843C53.3595 28.2725 52.7687 28.0667 51.9691 28.0667C51.2948 28.0667 50.7159 28.2606 50.2326 28.6485C49.7492 29.0304 49.3911 29.6003 49.1584 30.3582V37H48.0843V27.3148H49.1137ZM70.5071 37C70.3997 36.6957 70.3311 36.2451 70.3012 35.6484C69.9253 36.1377 69.4449 36.5166 68.8601 36.7852C68.2812 37.0477 67.6666 37.179 67.0161 37.179C66.0852 37.179 65.3303 36.9194 64.7515 36.4003C64.1786 35.8811 63.8921 35.2247 63.8921 34.431C63.8921 33.4881 64.283 32.7422 65.0648 32.1932C65.8525 31.6442 66.9475 31.3697 68.3499 31.3697H70.2923V30.2687C70.2923 29.5764 70.0774 29.0334 69.6478 28.6395C69.2241 28.2397 68.6035 28.0398 67.7859 28.0398C67.04 28.0398 66.4224 28.2308 65.933 28.6127C65.4437 28.9946 65.199 29.4541 65.199 29.9912L64.1249 29.9822C64.1249 29.2124 64.4829 28.5471 65.199 27.9861C65.9151 27.4192 66.7953 27.1357 67.8396 27.1357C68.9198 27.1357 69.7701 27.4073 70.3907 27.9503C71.0173 28.4874 71.3396 29.2393 71.3575 30.206V34.789C71.3575 35.7259 71.4559 36.4271 71.6529 36.8926V37H70.5071ZM67.1414 36.2302C67.8575 36.2302 68.4961 36.0571 69.057 35.711C69.6239 35.3649 70.0357 34.9024 70.2923 34.3236V32.1932H68.3767C67.3085 32.2051 66.4731 32.4021 65.8704 32.784C65.2676 33.1599 64.9663 33.6791 64.9663 34.3415C64.9663 34.8845 65.1662 35.3351 65.566 35.6931C65.9718 36.0512 66.497 36.2302 67.1414 36.2302ZM75.4213 37H74.3472V27.3148H75.4213V37ZM74.1592 24.513C74.1592 24.3101 74.2248 24.1401 74.3561 24.0028C74.4874 23.8596 74.6664 23.788 74.8932 23.788C75.12 23.788 75.299 23.8596 75.4303 24.0028C75.5675 24.1401 75.6362 24.3101 75.6362 24.513C75.6362 24.7159 75.5675 24.886 75.4303 25.0233C75.299 25.1605 75.12 25.2291 74.8932 25.2291C74.6664 25.2291 74.4874 25.1605 74.3561 25.0233C74.2248 24.886 74.1592 24.7159 74.1592 24.513ZM79.5389 37H78.4647V23.2509H79.5389V37ZM86.3239 32.0142C86.3239 31.0832 86.503 30.2448 86.861 29.4989C87.225 28.7529 87.7352 28.1741 88.3917 27.7623C89.0541 27.3446 89.803 27.1357 90.6384 27.1357C91.9274 27.1357 92.9717 27.5893 93.7714 28.4963C94.571 29.3974 94.9708 30.5939 94.9708 32.0858V32.3096C94.9708 33.2464 94.7888 34.0908 94.4248 34.8428C94.0667 35.5887 93.5595 36.1646 92.9031 36.5703C92.2467 36.9761 91.4977 37.179 90.6563 37.179C89.3733 37.179 88.329 36.7285 87.5234 35.8274C86.7238 34.9203 86.3239 33.7209 86.3239 32.229V32.0142ZM87.3981 32.3096C87.3981 33.4672 87.6965 34.4191 88.2932 35.165C88.8959 35.905 89.6836 36.275 90.6563 36.275C91.6231 36.275 92.4048 35.905 93.0016 35.165C93.6043 34.4191 93.9056 33.4374 93.9056 32.22V32.0142C93.9056 31.2742 93.7684 30.5969 93.4939 29.9822C93.2194 29.3676 92.8345 28.8932 92.3392 28.559C91.8439 28.2188 91.2769 28.0488 90.6384 28.0488C89.6836 28.0488 88.9049 28.4247 88.3022 29.1766C87.6994 29.9226 87.3981 30.9012 87.3981 32.1126V32.3096ZM103.421 35.7737C102.776 36.7106 101.747 37.179 100.333 37.179C99.3002 37.179 98.5155 36.8807 97.9784 36.2839C97.4414 35.6812 97.1669 34.792 97.1549 33.6164V27.3148H98.2201V33.4822C98.2201 35.3261 98.9661 36.2481 100.458 36.2481C102.009 36.2481 102.991 35.6066 103.403 34.3236V27.3148H104.477V37H103.439L103.421 35.7737ZM117.528 34.5384C117.528 34.0073 117.313 33.5806 116.883 33.2584C116.46 32.9361 115.818 32.6855 114.959 32.5065C114.1 32.3215 113.431 32.1126 112.954 31.8799C112.482 31.6412 112.13 31.3518 111.898 31.0116C111.671 30.6715 111.557 30.2597 111.557 29.7764C111.557 29.0125 111.877 28.3829 112.515 27.8876C113.154 27.3864 113.971 27.1357 114.968 27.1357C116.048 27.1357 116.913 27.4043 117.564 27.9414C118.22 28.4725 118.548 29.1677 118.548 30.027H117.474C117.474 29.4601 117.236 28.9886 116.758 28.6127C116.287 28.2367 115.69 28.0488 114.968 28.0488C114.264 28.0488 113.697 28.2069 113.267 28.5232C112.843 28.8335 112.632 29.2393 112.632 29.7406C112.632 30.2239 112.808 30.5999 113.16 30.8684C113.518 31.131 114.165 31.3727 115.102 31.5935C116.045 31.8143 116.749 32.05 117.215 32.3006C117.686 32.5512 118.035 32.8526 118.262 33.2047C118.489 33.5568 118.602 33.9834 118.602 34.4847C118.602 35.3022 118.271 35.9557 117.608 36.445C116.952 36.9344 116.093 37.179 115.031 37.179C113.903 37.179 112.987 36.9075 112.283 36.3645C111.584 35.8155 111.235 35.1232 111.235 34.2878H112.309C112.351 34.9144 112.614 35.4037 113.097 35.7558C113.586 36.1019 114.231 36.275 115.031 36.275C115.776 36.275 116.379 36.1108 116.839 35.7826C117.298 35.4544 117.528 35.0397 117.528 34.5384ZM124.769 37.179C123.946 37.179 123.2 36.9761 122.532 36.5703C121.869 36.1646 121.353 35.6006 120.983 34.8786C120.613 34.1505 120.428 33.336 120.428 32.4349V32.05C120.428 31.119 120.607 30.2806 120.965 29.5347C121.329 28.7887 121.833 28.2039 122.478 27.7802C123.122 27.3506 123.821 27.1357 124.573 27.1357C125.748 27.1357 126.679 27.5385 127.365 28.3442C128.058 29.1438 128.404 30.2388 128.404 31.6293V32.229H121.493V32.4349C121.493 33.5329 121.807 34.4489 122.433 35.1829C123.066 35.9109 123.859 36.275 124.814 36.275C125.387 36.275 125.891 36.1705 126.327 35.9617C126.769 35.7528 127.168 35.4186 127.526 34.9591L128.198 35.4693C127.41 36.6091 126.267 37.179 124.769 37.179ZM124.573 28.0488C123.767 28.0488 123.087 28.3442 122.532 28.9349C121.983 29.5257 121.648 30.3194 121.529 31.316H127.338V31.1996C127.309 30.2687 127.043 29.5108 126.542 28.926C126.041 28.3412 125.384 28.0488 124.573 28.0488ZM131.51 27.3148L131.546 28.9707C131.91 28.374 132.363 27.9205 132.906 27.6102C133.449 27.2939 134.049 27.1357 134.705 27.1357C135.744 27.1357 136.516 27.4281 137.024 28.013C137.531 28.5978 137.788 29.475 137.794 30.6446V37H136.728V30.6357C136.722 29.7704 136.537 29.1259 136.173 28.7022C135.815 28.2785 135.239 28.0667 134.446 28.0667C133.783 28.0667 133.196 28.2755 132.682 28.6933C132.175 29.105 131.799 29.663 131.555 30.3671V37H130.489V27.3148H131.51ZM141.634 28.9528C141.986 28.374 142.436 27.9264 142.985 27.6102C143.534 27.2939 144.134 27.1357 144.784 27.1357C145.823 27.1357 146.596 27.4281 147.103 28.013C147.61 28.5978 147.867 29.475 147.873 30.6446V37H146.807V30.6357C146.801 29.7704 146.616 29.1259 146.252 28.7022C145.894 28.2785 145.319 28.0667 144.525 28.0667C143.862 28.0667 143.275 28.2755 142.761 28.6933C142.254 29.105 141.878 29.663 141.634 30.3671V37H140.568V23.2509H141.634V28.9528ZM156.743 37C156.636 36.6957 156.567 36.2451 156.537 35.6484C156.161 36.1377 155.681 36.5166 155.096 36.7852C154.517 37.0477 153.903 37.179 153.252 37.179C152.321 37.179 151.566 36.9194 150.988 36.4003C150.415 35.8811 150.128 35.2247 150.128 34.431C150.128 33.4881 150.519 32.7422 151.301 32.1932C152.089 31.6442 153.184 31.3697 154.586 31.3697H156.528V30.2687C156.528 29.5764 156.314 29.0334 155.884 28.6395C155.46 28.2397 154.84 28.0398 154.022 28.0398C153.276 28.0398 152.659 28.2308 152.169 28.6127C151.68 28.9946 151.435 29.4541 151.435 29.9912L150.361 29.9822C150.361 29.2124 150.719 28.5471 151.435 27.9861C152.151 27.4192 153.032 27.1357 154.076 27.1357C155.156 27.1357 156.006 27.4073 156.627 27.9503C157.254 28.4874 157.576 29.2393 157.594 30.206V34.789C157.594 35.7259 157.692 36.4271 157.889 36.8926V37H156.743ZM153.378 36.2302C154.094 36.2302 154.732 36.0571 155.293 35.711C155.86 35.3649 156.272 34.9024 156.528 34.3236V32.1932H154.613C153.545 32.2051 152.709 32.4021 152.107 32.784C151.504 33.1599 151.202 33.6791 151.202 34.3415C151.202 34.8845 151.402 35.3351 151.802 35.6931C152.208 36.0512 152.733 36.2302 153.378 36.2302ZM166.115 37H165.041V27.3148H166.115V37ZM164.853 24.513C164.853 24.3101 164.919 24.1401 165.05 24.0028C165.181 23.8596 165.36 23.788 165.587 23.788C165.814 23.788 165.993 23.8596 166.124 24.0028C166.261 24.1401 166.33 24.3101 166.33 24.513C166.33 24.7159 166.261 24.886 166.124 25.0233C165.993 25.1605 165.814 25.2291 165.587 25.2291C165.36 25.2291 165.181 25.1605 165.05 25.0233C164.919 24.886 164.853 24.7159 164.853 24.513ZM170.054 27.3148L170.09 28.9707C170.454 28.374 170.907 27.9205 171.45 27.6102C171.993 27.2939 172.593 27.1357 173.249 27.1357C174.288 27.1357 175.06 27.4281 175.568 28.013C176.075 28.5978 176.332 29.475 176.338 30.6446V37H175.272V30.6357C175.266 29.7704 175.081 29.1259 174.717 28.7022C174.359 28.2785 173.783 28.0667 172.99 28.0667C172.327 28.0667 171.74 28.2755 171.226 28.6933C170.719 29.105 170.343 29.663 170.099 30.3671V37H169.033V27.3148H170.054ZM182.693 36.275C183.439 36.275 184.062 36.0661 184.564 35.6484C185.071 35.2247 185.345 34.6786 185.387 34.0103H186.417C186.387 34.6011 186.202 35.1411 185.862 35.6305C185.521 36.1138 185.068 36.4928 184.501 36.7673C183.94 37.0418 183.337 37.179 182.693 37.179C181.422 37.179 180.413 36.7374 179.667 35.8542C178.927 34.9711 178.557 33.7835 178.557 32.2917V31.9694C178.557 31.0146 178.725 30.1702 179.059 29.4362C179.393 28.7022 179.87 28.1353 180.491 27.7355C181.117 27.3357 181.849 27.1357 182.684 27.1357C183.746 27.1357 184.62 27.452 185.307 28.0846C185.999 28.7171 186.369 29.5496 186.417 30.582H185.387C185.339 29.8241 185.065 29.2124 184.564 28.747C184.068 28.2815 183.442 28.0488 182.684 28.0488C181.717 28.0488 180.965 28.3979 180.428 29.0961C179.897 29.7943 179.632 30.7729 179.632 32.0321V32.3454C179.632 33.5806 179.897 34.5444 180.428 35.2366C180.965 35.9288 181.72 36.275 182.693 36.275ZM187.974 32.0142C187.974 31.0832 188.153 30.2448 188.511 29.4989C188.875 28.7529 189.385 28.1741 190.042 27.7623C190.704 27.3446 191.453 27.1357 192.289 27.1357C193.578 27.1357 194.622 27.5893 195.422 28.4963C196.221 29.3974 196.621 30.5939 196.621 32.0858V32.3096C196.621 33.2464 196.439 34.0908 196.075 34.8428C195.717 35.5887 195.21 36.1646 194.553 36.5703C193.897 36.9761 193.148 37.179 192.307 37.179C191.024 37.179 189.979 36.7285 189.174 35.8274C188.374 34.9203 187.974 33.7209 187.974 32.229V32.0142ZM189.048 32.3096C189.048 33.4672 189.347 34.4191 189.943 35.165C190.546 35.905 191.334 36.275 192.307 36.275C193.273 36.275 194.055 35.905 194.652 35.165C195.254 34.4191 195.556 33.4374 195.556 32.22V32.0142C195.556 31.2742 195.419 30.5969 195.144 29.9822C194.87 29.3676 194.485 28.8932 193.989 28.559C193.494 28.2188 192.927 28.0488 192.289 28.0488C191.334 28.0488 190.555 28.4247 189.952 29.1766C189.35 29.9226 189.048 30.9012 189.048 32.1126V32.3096ZM203.317 28.2278C203.09 28.186 202.848 28.1651 202.591 28.1651C201.923 28.1651 201.356 28.3531 200.891 28.7291C200.431 29.099 200.103 29.6391 199.906 30.3492V37H198.841V27.3148H199.888L199.906 28.8544C200.473 27.7086 201.383 27.1357 202.636 27.1357C202.935 27.1357 203.17 27.1745 203.343 27.2521L203.317 28.2278ZM209.493 28.2278C209.266 28.186 209.024 28.1651 208.768 28.1651C208.099 28.1651 207.533 28.3531 207.067 28.7291C206.608 29.099 206.279 29.6391 206.082 30.3492V37H205.017V27.3148H206.065L206.082 28.8544C206.649 27.7086 207.559 27.1357 208.813 27.1357C209.111 27.1357 209.347 27.1745 209.52 27.2521L209.493 28.2278ZM214.765 37.179C213.942 37.179 213.196 36.9761 212.527 36.5703C211.865 36.1646 211.349 35.6006 210.979 34.8786C210.609 34.1505 210.424 33.336 210.424 32.4349V32.05C210.424 31.119 210.603 30.2806 210.961 29.5347C211.325 28.7887 211.829 28.2039 212.474 27.7802C213.118 27.3506 213.816 27.1357 214.568 27.1357C215.744 27.1357 216.675 27.5385 217.361 28.3442C218.053 29.1438 218.399 30.2388 218.399 31.6293V32.229H211.489V32.4349C211.489 33.5329 211.802 34.4489 212.429 35.1829C213.061 35.9109 213.855 36.275 214.81 36.275C215.383 36.275 215.887 36.1705 216.323 35.9617C216.764 35.7528 217.164 35.4186 217.522 34.9591L218.193 35.4693C217.406 36.6091 216.263 37.179 214.765 37.179ZM214.568 28.0488C213.763 28.0488 213.082 28.3442 212.527 28.9349C211.978 29.5257 211.644 30.3194 211.525 31.316H217.334V31.1996C217.304 30.2687 217.039 29.5108 216.538 28.926C216.036 28.3412 215.38 28.0488 214.568 28.0488ZM222.15 24.8353V27.3148H224.155V28.192H222.15V34.6458C222.15 35.1829 222.245 35.5827 222.436 35.8453C222.633 36.1079 222.959 36.2391 223.412 36.2391C223.591 36.2391 223.881 36.2093 224.28 36.1496L224.325 37.0269C224.045 37.1283 223.663 37.179 223.179 37.179C222.445 37.179 221.911 36.9672 221.577 36.5435C221.243 36.1138 221.076 35.4843 221.076 34.6548V28.192H219.295V27.3148H221.076V24.8353H222.15ZM225.605 32.0142C225.605 31.0832 225.784 30.2448 226.142 29.4989C226.506 28.7529 227.016 28.1741 227.673 27.7623C228.335 27.3446 229.084 27.1357 229.92 27.1357C231.209 27.1357 232.253 27.5893 233.053 28.4963C233.852 29.3974 234.252 30.5939 234.252 32.0858V32.3096C234.252 33.2464 234.07 34.0908 233.706 34.8428C233.348 35.5887 232.841 36.1646 232.184 36.5703C231.528 36.9761 230.779 37.179 229.938 37.179C228.654 37.179 227.61 36.7285 226.805 35.8274C226.005 34.9203 225.605 33.7209 225.605 32.229V32.0142ZM226.679 32.3096C226.679 33.4672 226.978 34.4191 227.574 35.165C228.177 35.905 228.965 36.275 229.938 36.275C230.904 36.275 231.686 35.905 232.283 35.165C232.885 34.4191 233.187 33.4374 233.187 32.22V32.0142C233.187 31.2742 233.05 30.5969 232.775 29.9822C232.501 29.3676 232.116 28.8932 231.62 28.559C231.125 28.2188 230.558 28.0488 229.92 28.0488C228.965 28.0488 228.186 28.4247 227.583 29.1766C226.981 29.9226 226.679 30.9012 226.679 32.1126V32.3096ZM242.272 34.5384C242.272 34.0073 242.057 33.5806 241.628 33.2584C241.204 32.9361 240.563 32.6855 239.703 32.5065C238.844 32.3215 238.176 32.1126 237.698 31.8799C237.227 31.6412 236.875 31.3518 236.642 31.0116C236.415 30.6715 236.302 30.2597 236.302 29.7764C236.302 29.0125 236.621 28.3829 237.26 27.8876C237.898 27.3864 238.716 27.1357 239.712 27.1357C240.792 27.1357 241.658 27.4043 242.308 27.9414C242.965 28.4725 243.293 29.1677 243.293 30.027H242.219C242.219 29.4601 241.98 28.9886 241.503 28.6127C241.031 28.2367 240.434 28.0488 239.712 28.0488C239.008 28.0488 238.441 28.2069 238.012 28.5232C237.588 28.8335 237.376 29.2393 237.376 29.7406C237.376 30.2239 237.552 30.5999 237.904 30.8684C238.262 31.131 238.91 31.3727 239.847 31.5935C240.789 31.8143 241.494 32.05 241.959 32.3006C242.43 32.5512 242.78 32.8526 243.006 33.2047C243.233 33.5568 243.346 33.9834 243.346 34.4847C243.346 35.3022 243.015 35.9557 242.353 36.445C241.696 36.9344 240.837 37.179 239.775 37.179C238.647 37.179 237.731 36.9075 237.027 36.3645C236.329 35.8155 235.98 35.1232 235.98 34.2878H237.054C237.096 34.9144 237.358 35.4037 237.841 35.7558C238.331 36.1019 238.975 36.275 239.775 36.275C240.521 36.275 241.124 36.1108 241.583 35.7826C242.043 35.4544 242.272 35.0397 242.272 34.5384Z" fill="#E68A00"/>
<g clip-path="url(#clip0)">
<path d="M21.8849 32.0956C21.9816 32.9838 22.1455 33.644 22.371 34.0795C22.5994 34.5136 23.0047 34.7301 23.5899 34.7301C23.6993 34.7301 23.7971 34.715 23.8942 34.6975C23.9936 34.715 24.0911 34.7301 24.2013 34.7301C24.7849 34.7301 25.1914 34.5136 25.4185 34.0795C25.6453 33.644 25.8064 32.9838 25.905 32.0956L26.4246 25.2374C26.5212 23.9007 26.5706 22.9415 26.5706 22.3593C26.5706 21.5669 26.3363 20.9485 25.8661 20.5046C25.3943 20.0606 24.7745 19.8392 24.0068 19.8392C23.9658 19.8392 23.9352 19.8473 23.895 19.8487C23.8568 19.8473 23.8254 19.8392 23.7856 19.8392C23.0163 19.8392 22.3977 20.0606 21.9267 20.5046C21.4561 20.9492 21.2202 21.5679 21.2202 22.3597C21.2202 22.9419 21.2683 23.901 21.3666 25.2378L21.8849 32.0956" fill="#E68A00"/>
<path d="M23.9149 37.2369C23.1694 37.2369 22.5361 37.4443 22.0103 37.8592C21.4848 38.2743 21.2214 38.7783 21.2214 39.37C21.2214 40.0378 21.488 40.5635 22.017 40.9454C22.5485 41.3272 23.1682 41.5181 23.8767 41.5181C24.5979 41.5181 25.2268 41.33 25.7646 40.9527C26.3017 40.5765 26.5702 40.048 26.5702 39.3707C26.5702 38.779 26.3132 38.275 25.7993 37.8599C25.2853 37.4443 24.6572 37.2369 23.9137 37.2369" fill="#E68A00"/>
</g>
<defs>
<clipPath id="clip0">
<rect width="25.4589" height="22.4605" fill="white" transform="translate(11.165 19.079)"/>
</clipPath>
</defs>
</svg>
