<svg width="53" height="53" viewBox="0 0 53 53" fill="none" xmlns="http://www.w3.org/2000/svg">
<path d="M44.2771 24.2917H8.72292C7.56427 24.2917 6.625 25.2309 6.625 26.3896V26.6104C6.625 27.7691 7.56427 28.7083 8.72292 28.7083H44.2771C45.4357 28.7083 46.375 27.7691 46.375 26.6104V26.3896C46.375 25.2309 45.4357 24.2917 44.2771 24.2917Z" fill="white"/>
<path d="M44.2771 35.3333H8.72292C7.56427 35.3333 6.625 36.2726 6.625 37.4313V37.6521C6.625 38.8107 7.56427 39.75 8.72292 39.75H44.2771C45.4357 39.75 46.375 38.8107 46.375 37.6521V37.4313C46.375 36.2726 45.4357 35.3333 44.2771 35.3333Z" fill="white"/>
<path d="M44.2771 13.25H8.72292C7.56427 13.25 6.625 14.1893 6.625 15.3479V15.5688C6.625 16.7274 7.56427 17.6667 8.72292 17.6667H44.2771C45.4357 17.6667 46.375 16.7274 46.375 15.5688V15.3479C46.375 14.1893 45.4357 13.25 44.2771 13.25Z" fill="white"/>
</svg>
