<?xml version="1.0" encoding="utf-8"?>
<!-- Generator: Adobe Illustrator 24.0.2, SVG Export Plug-In . SVG Version: 6.00 Build 0)  -->
<svg version="1.1" xmlns="http://www.w3.org/2000/svg" xmlns:xlink="http://www.w3.org/1999/xlink" x="0px" y="0px"
	 viewBox="0 0 760.7 691.9" style="enable-background:new 0 0 760.7 691.9;" xml:space="preserve">
<style type="text/css">
	.st0{stroke:#000000;stroke-miterlimit:10;}
	.st1{enable-background:new    ;}
	.st2{clip-path:url(#SVGID_3_);}
	.st3{fill:#74FFF5;}
	.st4{fill:#FFFFFF;stroke:#000000;stroke-miterlimit:10;}
	.st5{clip-path:url(#SVGID_5_);enable-background:new    ;}
	.st6{clip-path:url(#SVGID_7_);enable-background:new    ;}
	.st7{fill:#4AA39D;}
	.st8{fill:#489E98;}
	.st9{clip-path:url(#SVGID_9_);enable-background:new    ;}
	.st10{fill:#4DA8A2;}
	.st11{clip-path:url(#SVGID_11_);enable-background:new    ;}
	.st12{fill:#52B5AE;}
	.st13{clip-path:url(#SVGID_13_);enable-background:new    ;}
	.st14{clip-path:url(#SVGID_15_);enable-background:new    ;}
	.st15{clip-path:url(#SVGID_17_);enable-background:new    ;}
	.st16{fill:#469993;}
	.st17{clip-path:url(#SVGID_19_);enable-background:new    ;}
	.st18{fill:#4CA7A0;}
	.st19{clip-path:url(#SVGID_21_);enable-background:new    ;}
	.st20{clip-path:url(#SVGID_23_);enable-background:new    ;}
	.st21{fill:#3C857F;}
	.st22{clip-path:url(#SVGID_25_);enable-background:new    ;}
	.st23{fill:#3F8A84;}
	.st24{clip-path:url(#SVGID_27_);enable-background:new    ;}
	.st25{clip-path:url(#SVGID_29_);enable-background:new    ;}
	.st26{clip-path:url(#SVGID_31_);enable-background:new    ;}
	.st27{clip-path:url(#SVGID_33_);enable-background:new    ;}
	.st28{clip-path:url(#SVGID_35_);enable-background:new    ;}
	.st29{clip-path:url(#SVGID_37_);enable-background:new    ;}
	.st30{clip-path:url(#SVGID_39_);enable-background:new    ;}
	.st31{fill:#3C837E;}
	.st32{fill:#4FADA6;}
	.st33{fill:#3A807B;}
	.st34{clip-path:url(#SVGID_41_);enable-background:new    ;}
	.st35{fill:#4BA69F;}
	.st36{clip-path:url(#SVGID_43_);enable-background:new    ;}
	.st37{fill:#51B3AC;}
	.st38{clip-path:url(#SVGID_45_);enable-background:new    ;}
	.st39{fill:#418F89;}
	.st40{fill:#43948E;}
	.st41{clip-path:url(#SVGID_47_);enable-background:new    ;}
	.st42{clip-path:url(#SVGID_49_);enable-background:new    ;}
	.st43{clip-path:url(#SVGID_51_);enable-background:new    ;}
	.st44{clip-path:url(#SVGID_53_);enable-background:new    ;}
	.st45{clip-path:url(#SVGID_55_);enable-background:new    ;}
	.st46{fill:#65DFD6;}
	.st47{clip-path:url(#SVGID_57_);enable-background:new    ;}
	.st48{clip-path:url(#SVGID_58_);enable-background:new    ;}
</style>
<g id="Layer_6">
	<g>
		<path class="st0" d="M545.2,564.5c0.3,2.3,1.7,3.9,3.4,4c1.7,0.1,3.3-1.6,3.6-4c0,8.1,0,16.2,0,24.3c-0.6,1.8-1.8,3-3.1,3.1
			c-1.6,0.2-3.1-1.1-3.8-3.1C545.2,580.7,545.2,572.6,545.2,564.5z"/>
		<path class="st0" d="M562,556.7c0.3,2.5,1.7,4.4,3.4,4.5c1.7,0.1,3.3-1.8,3.6-4.5c0,9,0,18,0,27c-0.6,2-1.8,3.3-3.1,3.5
			c-1.6,0.2-3.1-1.2-3.8-3.5C562,574.7,562,565.7,562,556.7z"/>
		<g>
			<g>
				<g class="st1">
					<defs>
						<polygon id="SVGID_1_" class="st1" points="531.7,575.8 531.9,506.9 582.2,499.8 582.1,568.7 						"/>
					</defs>
					<clipPath id="SVGID_3_">
						<use xlink:href="#SVGID_1_"  style="overflow:visible;"/>
					</clipPath>
					<g class="st2">
						<g>
							<g>
								<g>
									<path class="st3" d="M557.1,508.2c-10.8,1.5-20,12.1-20.9,24l-0.1,38.2l41.5-5.8l0.1-38.2c-0.7-11.4-9.6-19.4-20.2-18.2
										C557.4,508.1,557.3,508.2,557.1,508.2"/>
									<path d="M536.2,570.4l0.1-38.2c0.8-11.9,10.1-22.5,20.9-24c0.1,0,0.3,0,0.4-0.1c10.6-1.2,19.4,6.8,20.2,18.2l-0.1,38.2
										L536.2,570.4 M557.1,503.4c-13,1.8-24.3,14.8-25.3,29.2l-0.1,43.3l50.4-7.1l0.1-43.1l0-0.2c-0.9-13.9-11.6-23.6-24.5-22.2
										C557.5,503.3,557.3,503.4,557.1,503.4"/>
								</g>
							</g>
						</g>
					</g>
				</g>
			</g>
		</g>
		<path class="st0" d="M548.9,427.1c2.1,0.4,13.1,0.4,15.2,0v84.2c-1.2,3.1-4.1,5.2-7.3,5.3c-3.5,0.1-6.6-2-7.9-5.3V427.1z"/>
		<path class="st4" d="M611,574"/>
	</g>
</g>
<g id="Layer_1">
	<g>
		<g>
			<g class="st1">
				<g class="st1">
					<defs>
						<path id="SVGID_56_" class="st1" d="M622,340.6l22.8,12.4c1.6,0.9,3.2,1.9,4.8,3.1c19.7,14.7,18.5,41.3,18.2,44.9l-22.8-12.4
							c0.3-3.6,1.5-30.2-18.2-44.9C625.3,342.5,623.7,341.5,622,340.6z"/>
					</defs>
					<clipPath id="SVGID_5_">
						<use xlink:href="#SVGID_56_"  style="overflow:visible;"/>
					</clipPath>
					<g class="st5">
						<path d="M667.9,401l-22.8-12.4c0.3-3.6,1.5-30.2-18.2-44.9c-1.6-1.2-3.2-2.2-4.8-3.1l22.8,12.4c1.6,0.9,3.2,1.9,4.8,3.1
							C669.3,370.7,668.1,397.3,667.9,401"/>
					</g>
				</g>
				<g class="st1">
					<defs>
						<path id="SVGID_54_" class="st1" d="M619.8,339.5c0.7,0.3,1.5,0.7,2.2,1.1l22.8,12.4c-0.7-0.4-1.5-0.8-2.2-1.1
							C635,347.7,627.4,343.6,619.8,339.5z"/>
					</defs>
					<clipPath id="SVGID_7_">
						<use xlink:href="#SVGID_54_"  style="overflow:visible;"/>
					</clipPath>
					<g class="st6">
						<path class="st7" d="M635.7,349.4L612.9,337c2.5,0.7,5.1,1.6,7.7,2.9l22.8,12.4C640.8,351,638.2,350,635.7,349.4"/>
						<path class="st8" d="M643.4,352.2l-22.8-12.4c0.5,0.2,1,0.5,1.5,0.8l22.8,12.4C644.4,352.7,643.9,352.5,643.4,352.2"/>
					</g>
				</g>
				<g class="st1">
					<defs>
						<path id="SVGID_52_" class="st1" d="M619.8,339.5c0.2,0.1,0.4,0.2,0.5,0.3c0.3,0.2,0.8,0.4,1.1,0.6c0.2,0.1,0.4,0.2,0.6,0.3
							c0.4,0.2,0.8,0.4,1.2,0.6c0.4,0.2,0.8,0.5,1.2,0.6c1.5,0.8,3,1.6,4.5,2.5c4.6,2.5,9.1,5,13.7,7.4c-9.5-4.4-19-4.3-25.6-3.4
							c-3.1,0.4-5.5,1.1-7,1.5l-22.8-12.4c1.4-0.4,3.9-1,7-1.5C600.7,335.1,610.3,335.1,619.8,339.5z"/>
					</defs>
					<clipPath id="SVGID_9_">
						<use xlink:href="#SVGID_52_"  style="overflow:visible;"/>
					</clipPath>
					<g class="st9">
						<path class="st10" d="M610,350l-22.8-12.4c1.4-0.4,3.9-1,7-1.5c5-0.7,11.7-0.9,18.7,0.9l22.8,12.4c-7.1-1.8-13.7-1.6-18.7-0.9
							C613.8,348.9,611.4,349.5,610,350"/>
						<path class="st7" d="M635.7,349.4L612.9,337c2.5,0.7,5.1,1.6,7.7,2.9l22.8,12.4C640.8,351,638.2,350,635.7,349.4"/>
					</g>
				</g>
				<g class="st1">
					<defs>
						<path id="SVGID_50_" class="st1" d="M625.9,333.6l22.8,12.4c-11.3-6.2-23.1-6.3-31.1-5.2l-22.8-12.4
							C602.8,327.3,614.5,327.4,625.9,333.6z"/>
					</defs>
					<clipPath id="SVGID_11_">
						<use xlink:href="#SVGID_50_"  style="overflow:visible;"/>
					</clipPath>
					<g class="st11">
						<path d="M617.5,340.7l-22.8-12.4c5.6-0.7,12.9-0.9,20.7,1.1l22.8,12.4C630.4,339.8,623.1,340,617.5,340.7"/>
						<path d="M638.2,341.8l-22.8-12.4c2.9,0.8,5.9,1.8,8.8,3.3l22.8,12.4C644.1,343.6,641.1,342.6,638.2,341.8"/>
						<path d="M647,345.1l-22.8-12.4c0.6,0.3,1.1,0.6,1.7,0.9l22.8,12.4C648.1,345.7,647.6,345.4,647,345.1"/>
					</g>
				</g>
				<g>
					<polygon class="st12" points="600.1,352.9 577.3,340.5 587.2,337.6 610,350 					"/>
				</g>
				<g>
					<polygon points="600.1,352.9 577.3,340.5 584.1,331.6 606.8,344 					"/>
				</g>
				<g class="st1">
					<defs>
						<path id="SVGID_48_" class="st1" d="M580.2,219.1l22.8,12.4c7.9,4.3,14.4,10.4,18.9,17.9c14.5,24.4,8.1,64.1-15.1,94.5
							l-22.8-12.4c23.2-30.4,29.5-70.2,15.1-94.5C594.6,229.5,588.2,223.4,580.2,219.1z"/>
					</defs>
					<clipPath id="SVGID_13_">
						<use xlink:href="#SVGID_48_"  style="overflow:visible;"/>
					</clipPath>
					<g class="st13">
						<path d="M606.8,344l-22.8-12.4c0.9-1.2,1.8-2.4,2.7-3.7l22.8,12.4C608.7,341.6,607.8,342.8,606.8,344"/>
						<path d="M609.5,340.3l-22.8-12.4c2.7-3.8,5.1-7.7,7.2-11.7l22.8,12.4C614.6,332.6,612.2,336.5,609.5,340.3"/>
						<path d="M616.7,328.6l-22.8-12.4c2.6-4.8,4.8-9.7,6.6-14.7l22.8,12.4C621.5,318.9,619.3,323.8,616.7,328.6"/>
						<path d="M623.4,314l-22.8-12.4c8.6-23.4,8.5-47.6-1.4-64.5c-4.5-7.6-11-13.6-18.9-17.9l22.8,12.4c7.9,4.3,14.4,10.4,18.9,17.9
							C631.9,266.3,631.9,290.6,623.4,314"/>
					</g>
				</g>
				<g class="st1">
					<defs>
						<path id="SVGID_46_" class="st1" d="M390.4,492.3l-22.8-12.4c0.1,0,14.7-2.5,74.3-11.4c17.2-2.6,34.5-5.1,51.8-7.5
							c17.6-2.5,35.1-4.9,52.3-7.2c16.9-2.3,32.8-4.5,48.6-6.7c8.6-1.2,22.5-7.2,33.8-20.1c8.7-9.9,14.4-23.2,16.6-38.3l22.8,12.4
							c-2.2,15.2-8,28.4-16.6,38.3c-11.3,12.9-25.3,18.9-33.8,20.1c-15.8,2.2-31.7,4.4-48.6,6.7c-17.2,2.4-34.7,4.8-52.3,7.2
							c-17.3,2.4-34.6,4.9-51.8,7.5C405.1,489.8,390.5,492.3,390.4,492.3z"/>
					</defs>
					<clipPath id="SVGID_15_">
						<use xlink:href="#SVGID_46_"  style="overflow:visible;"/>
					</clipPath>
					<g class="st14">
						<path d="M390.4,492.3l-22.8-12.4c0.1,0,14.7-2.5,74.3-11.4c17.2-2.6,34.5-5.1,51.8-7.5c17.6-2.5,35.1-4.9,52.3-7.2
							c16.9-2.3,32.8-4.5,48.6-6.7c3.5-0.5,7.9-1.8,12.7-4l22.8,12.4c-4.8,2.3-9.2,3.5-12.7,4c-15.8,2.2-31.7,4.4-48.6,6.7
							c-17.2,2.4-34.7,4.8-52.3,7.2c-17.3,2.4-34.6,4.9-51.8,7.5C405.1,489.8,390.5,492.3,390.4,492.3"/>
						<path d="M630.1,455.4L607.3,443c2.9-1.4,5.9-3.1,8.9-5.1l22.8,12.4C636,452.3,633,454,630.1,455.4"/>
						<path d="M639,450.2l-22.8-12.4c2.2-1.5,4.4-3.3,6.6-5.2l22.8,12.4C643.4,447,641.2,448.7,639,450.2"/>
						<path d="M645.6,445l-22.8-12.4c1.8-1.6,3.6-3.4,5.4-5.4l22.8,12.4C649.2,441.6,647.4,443.4,645.6,445"/>
						<path d="M651,439.6l-22.8-12.4c0.1-0.1,0.2-0.2,0.3-0.3c1.4-1.6,2.7-3.3,4-5.1l22.8,12.4c-1.2,1.8-2.6,3.5-4,5.1
							C651.1,439.4,651,439.5,651,439.6"/>
						<path d="M655.2,434.2l-22.8-12.4c1.5-2.1,2.9-4.3,4.1-6.7l22.8,12.4C658.1,429.9,656.7,432.1,655.2,434.2"/>
						<path d="M659.3,427.6l-22.8-12.4c1.6-3,3-6.2,4.3-9.5l22.8,12.4C662.3,421.4,660.9,424.6,659.3,427.6"/>
						<path d="M663.6,418.1l-22.8-12.4c2-5.3,3.4-11.1,4.3-17.1l22.8,12.4C667,407,665.5,412.7,663.6,418.1"/>
					</g>
				</g>
				<g class="st1">
					<defs>
						<path id="SVGID_44_" class="st1" d="M554.2,212c9.7,0.6,18.5,3,26,7.1l22.8,12.4c-7.5-4.1-16.4-6.6-26-7.1
							c-4.9-0.3-9.9-0.1-14.9,0.6c-19,2.7-38,12.5-53.7,28l-22.8-12.4c15.7-15.6,34.6-25.4,53.7-28
							C544.3,211.9,549.3,211.7,554.2,212z"/>
					</defs>
					<clipPath id="SVGID_17_">
						<use xlink:href="#SVGID_44_"  style="overflow:visible;"/>
					</clipPath>
					<g class="st15">
						<path class="st16" d="M508.5,253l-22.8-12.4c1.3-1.3,2.6-2.6,4-3.8l22.8,12.4C511.1,250.4,509.8,251.7,508.5,253"/>
						<path class="st8" d="M512.5,249.2l-22.8-12.4c3.5-3.1,7.1-6,10.8-8.6l22.8,12.4C519.5,243.2,515.9,246.1,512.5,249.2"/>
						<path class="st7" d="M523.3,240.7l-22.8-12.4c4.6-3.2,9.3-5.9,14.2-8.2l22.8,12.4C532.6,234.8,527.8,237.5,523.3,240.7"/>
						<path class="st10" d="M537.4,232.5l-22.8-12.4c8-3.8,16.4-6.3,24.7-7.5c5-0.7,9.9-0.9,14.9-0.6c4.5,0.3,8.8,0.9,12.9,2
							l22.8,12.4c-4.1-1.1-8.4-1.7-12.9-2c-4.9-0.3-9.9-0.1-14.9,0.6C553.8,226.2,545.5,228.7,537.4,232.5"/>
						<path class="st7" d="M589.8,226.4L567.1,214c4,1,7.7,2.4,11.2,4.1l22.8,12.4C597.6,228.8,593.8,227.4,589.8,226.4"/>
						<path class="st8" d="M601.1,230.5l-22.8-12.4c0.7,0.3,1.3,0.7,2,1l22.8,12.4C602.4,231.2,601.7,230.8,601.1,230.5"/>
					</g>
				</g>
				<g class="st1">
					<defs>
						<path id="SVGID_42_" class="st1" d="M584.1,212.1l22.8,12.4c-8.3-4.5-18-7.2-28.6-7.9c-5.3-0.3-10.8-0.1-16.1,0.7
							c-17.5,2.5-35,10.5-50.3,23.2l-22.8-12.4c15.3-12.7,32.7-20.7,50.3-23.2c5.4-0.8,10.8-1,16.1-0.7
							C566.1,204.9,575.8,207.6,584.1,212.1z"/>
					</defs>
					<clipPath id="SVGID_19_">
						<use xlink:href="#SVGID_42_"  style="overflow:visible;"/>
					</clipPath>
					<g class="st17">
						<path d="M511.9,240.5l-22.8-12.4c2.6-2.2,5.4-4.3,8.1-6.2l22.8,12.4C517.2,236.2,514.5,238.3,511.9,240.5"/>
						<path d="M520,234.3l-22.8-12.4c5-3.4,10.1-6.4,15.3-8.9l22.8,12.4C530.1,227.9,525,230.9,520,234.3"/>
						<path d="M535.3,225.4L512.5,213c8.7-4.1,17.8-6.9,26.8-8.1c5.4-0.8,10.8-1,16.1-0.7c4.9,0.3,9.6,1,14,2.2l22.8,12.4
							c-4.5-1.2-9.1-1.9-14-2.2c-5.3-0.3-10.8-0.1-16.1,0.7C553.1,218.6,544.1,221.3,535.3,225.4"/>
						<path d="M592.3,218.8l-22.8-12.4c4.4,1.1,8.5,2.7,12.3,4.6l22.8,12.4C600.8,221.5,596.7,219.9,592.3,218.8"/>
						<path d="M604.7,223.4L581.9,211c0.7,0.4,1.5,0.7,2.2,1.1l22.8,12.4C606.1,224.1,605.4,223.7,604.7,223.4"/>
					</g>
				</g>
				<g>
					<polygon class="st18" points="499.9,261.5 477.1,249.1 485.7,240.6 508.5,253 					"/>
				</g>
				<g>
					<polygon points="499.9,261.5 477.1,249.1 480,237.4 502.8,249.8 					"/>
				</g>
				<g class="st1">
					<defs>
						<path id="SVGID_40_" class="st1" d="M336.3,497.5l-22.8-12.4c3.6,1.9,10.1,1.7,21,0.2c6.1-0.9,13.6-2.1,22.8-3.7
							c3.2-0.6,6.7-1.1,10.4-1.8l22.8,12.4c-3.7,0.6-7.1,1.2-10.4,1.8c-9.1,1.6-16.6,2.8-22.8,3.7
							C346.4,499.3,339.8,499.5,336.3,497.5z"/>
					</defs>
					<clipPath id="SVGID_21_">
						<use xlink:href="#SVGID_40_"  style="overflow:visible;"/>
					</clipPath>
					<g class="st19">
						<path d="M336.3,497.5l-22.8-12.4c0.1,0.1,0.2,0.1,0.3,0.1l22.8,12.4C336.5,497.6,336.4,497.6,336.3,497.5"/>
						<path d="M336.5,497.7l-22.8-12.4c0.6,0.3,1.2,0.5,1.9,0.7l22.8,12.4C337.7,498.2,337.1,498,336.5,497.7"/>
						<path d="M338.5,498.4L315.7,486c3.8,1,9.9,0.6,18.8-0.6c6.1-0.9,13.6-2.1,22.8-3.7c3.2-0.6,6.7-1.1,10.4-1.8l22.8,12.4
							c-3.7,0.6-7.1,1.2-10.4,1.8c-9.1,1.6-16.6,2.8-22.8,3.7C348.3,499,342.3,499.4,338.5,498.4"/>
					</g>
				</g>
				<g class="st1">
					<defs>
						<path id="SVGID_38_" class="st1" d="M313.5,485.1c-1-0.6-1.8-1.3-2.4-2.2c7.6,4.1,15.2,8.3,22.8,12.4c0.6,0.9,1.3,1.6,2.4,2.2
							C329.4,493.8,320.3,488.9,313.5,485.1z"/>
					</defs>
					<clipPath id="SVGID_23_">
						<use xlink:href="#SVGID_38_"  style="overflow:visible;"/>
					</clipPath>
					<g class="st20">
						<path class="st21" d="M336.3,497.5l-22.8-12.4c-1-0.6-1.8-1.3-2.4-2.2c-1.8-2.9-1.3-6.7,0.6-11.8l22.8,12.4
							c-1.9,5.1-2.3,8.9-0.6,11.8C334.5,496.3,335.2,497,336.3,497.5"/>
					</g>
				</g>
				<g class="st1">
					<defs>
						<path id="SVGID_36_" class="st1" d="M330.4,404.6c-1.6-7.5-4.9-14.3-9.4-19.9c7.6,4.1,15.2,8.3,22.8,12.4
							c4.5,5.6,7.8,12.4,9.4,19.9c4.2,19.6-4.9,38-12.3,52.7c-6.3,12.6-10,20.6-6.9,25.6c-7.6-4.1-15.2-8.3-22.8-12.4
							c-3.1-5,0.6-13,6.9-25.6C325.4,442.5,334.6,424.2,330.4,404.6z"/>
					</defs>
					<clipPath id="SVGID_25_">
						<use xlink:href="#SVGID_36_"  style="overflow:visible;"/>
					</clipPath>
					<g class="st22">
						<path class="st21" d="M336.3,497.5l-22.8-12.4c-1-0.6-1.8-1.3-2.4-2.2c-1.8-2.9-1.3-6.7,0.6-11.8l22.8,12.4
							c-1.9,5.1-2.3,8.9-0.6,11.8C334.5,496.3,335.2,497,336.3,497.5"/>
						<path class="st23" d="M334.5,483.6l-22.8-12.4c1.4-3.8,3.7-8.4,6.4-13.8c3-6,6.3-12.5,8.8-19.5l22.8,12.4
							c-2.6,7-5.8,13.5-8.8,19.5C338.1,475.1,335.9,479.7,334.5,483.6"/>
						<path class="st21" d="M349.7,450.2l-22.8-12.4c3.8-10.3,6-21.6,3.5-33.3c-2.9-13.6-11.5-24.9-22.2-30.7l22.8,12.4
							c10.7,5.8,19.3,17.1,22.2,30.7C355.7,428.7,353.4,439.9,349.7,450.2"/>
					</g>
				</g>
				<g class="st1">
					<defs>
						<path id="SVGID_34_" class="st1" d="M321,384.7c-3.6-4.5-8-8.2-12.8-10.8l22.8,12.4c4.8,2.6,9.2,6.3,12.8,10.8
							C336.2,393,328.6,388.8,321,384.7z"/>
					</defs>
					<clipPath id="SVGID_27_">
						<use xlink:href="#SVGID_34_"  style="overflow:visible;"/>
					</clipPath>
					<g class="st24">
						<path class="st21" d="M349.7,450.2l-22.8-12.4c3.8-10.3,6-21.6,3.5-33.3c-2.9-13.6-11.5-24.9-22.2-30.7l22.8,12.4
							c10.7,5.8,19.3,17.1,22.2,30.7C355.7,428.7,353.4,439.9,349.7,450.2"/>
					</g>
				</g>
				<g class="st1">
					<defs>
						<path id="SVGID_32_" class="st1" d="M332.4,504.6l-22.8-12.4c-1.9-1-3.4-2.5-4.6-4.4c-5.5-8.9,0.5-20.8,6.9-33.5
							c7.1-14.2,15.2-30.3,11.5-47.1c-2.5-11.6-10-21.4-19.2-26.4l22.8,12.4c9.2,5,16.7,14.8,19.2,26.4c3.6,16.7-4.4,32.9-11.5,47.1
							c-6.3,12.7-12.3,24.6-6.9,33.5C329,502.2,330.5,503.6,332.4,504.6z"/>
					</defs>
					<clipPath id="SVGID_29_">
						<use xlink:href="#SVGID_32_"  style="overflow:visible;"/>
					</clipPath>
					<g class="st25">
						<path d="M332.4,504.6l-22.8-12.4c-1.9-1-3.4-2.5-4.6-4.4c-3.3-5.4-2.4-11.9,0.2-18.9l22.8,12.4c-2.6,7.1-3.5,13.6-0.2,18.9
							C329,502.2,330.5,503.6,332.4,504.6"/>
						<path d="M328,481.3l-22.8-12.4c1.7-4.6,4.2-9.5,6.7-14.6c2.9-5.9,6.1-12.1,8.4-18.6l22.8,12.4c-2.4,6.5-5.5,12.7-8.4,18.6
							C332.2,471.7,329.7,476.6,328,481.3"/>
						<path d="M343.1,448.2l-22.8-12.4c3.4-9.1,5.2-18.7,3.1-28.5c-2.5-11.6-10-21.4-19.2-26.4l22.8,12.4c9.2,5,16.7,14.8,19.2,26.4
							C348.3,429.5,346.5,439,343.1,448.2"/>
					</g>
				</g>
				<g class="st1">
					<defs>
						<path id="SVGID_30_" class="st1" d="M435.4,113.8l22.8,12.4c4.8,2.6,9.6,5.9,14.2,9.8c30,25.5,41.6,69.1,30.4,113.8L480,237.4
							c11.2-44.8-0.4-88.4-30.4-113.8C445,119.6,440.2,116.4,435.4,113.8z"/>
					</defs>
					<clipPath id="SVGID_31_">
						<use xlink:href="#SVGID_30_"  style="overflow:visible;"/>
					</clipPath>
					<g class="st26">
						<path d="M502.8,249.8L480,237.4c11.2-44.8-0.4-88.4-30.4-113.8c-4.6-3.9-9.4-7.1-14.2-9.8l22.8,12.4c4.8,2.6,9.6,5.9,14.2,9.8
							C502.4,161.4,514,205,502.8,249.8"/>
					</g>
				</g>
				<g class="st1">
					<defs>
						<path id="SVGID_28_" class="st1" d="M376,104.4c16.7-2.4,38.6-1.9,59.3,9.3l22.8,12.4c-20.7-11.2-42.6-11.6-59.3-9.3
							C391.9,113.1,382.8,108.1,376,104.4z"/>
					</defs>
					<clipPath id="SVGID_33_">
						<use xlink:href="#SVGID_28_"  style="overflow:visible;"/>
					</clipPath>
					<g class="st27">
						<path class="st10" d="M398.8,116.8L376,104.4c11.6-1.6,25.8-1.9,40.3,1.8l22.8,12.4C424.6,114.9,410.4,115.2,398.8,116.8"/>
						<path class="st7" d="M439.1,118.7l-22.8-12.4c5.4,1.4,10.7,3.3,16.1,5.9l22.8,12.4C449.8,122,444.4,120,439.1,118.7"/>
						<path class="st8" d="M455.1,124.6l-22.8-12.4c1,0.5,2,1,3,1.6l22.8,12.4C457.2,125.6,456.2,125.1,455.1,124.6"/>
					</g>
				</g>
				<g class="st1">
					<defs>
						<path id="SVGID_26_" class="st1" d="M370.1,124.4L347.3,112c1.6-0.6,12.8-5.4,28.6-7.6l22.8,12.4
							C382.9,119,371.8,123.8,370.1,124.4z"/>
					</defs>
					<clipPath id="SVGID_35_">
						<use xlink:href="#SVGID_26_"  style="overflow:visible;"/>
					</clipPath>
					<g class="st28">
						<path class="st10" d="M370.1,124.4L347.3,112c1.6-0.6,12.8-5.4,28.6-7.6l22.8,12.4C382.9,119,371.8,123.8,370.1,124.4"/>
					</g>
				</g>
				<g class="st1">
					<defs>
						<path id="SVGID_24_" class="st1" d="M439.2,106.8l22.8,12.4c-22.1-12-45.5-12.5-63.3-10c-15.8,2.2-27.3,6.8-29.5,7.7
							l-22.8-12.4c2.2-0.9,13.7-5.5,29.5-7.7C393.7,94.3,417.2,94.8,439.2,106.8z"/>
					</defs>
					<clipPath id="SVGID_37_">
						<use xlink:href="#SVGID_24_"  style="overflow:visible;"/>
					</clipPath>
					<g class="st29">
						<path d="M369.2,116.9l-22.8-12.4c2.2-0.9,13.7-5.5,29.5-7.7c12.4-1.7,27.5-2.1,43,2l22.8,12.4c-15.5-4-30.6-3.7-43-2
							C382.9,111.4,371.4,116,369.2,116.9"/>
						<path d="M441.7,111.2l-22.8-12.4c5.7,1.5,11.5,3.5,17.2,6.3l22.8,12.4C453.1,114.7,447.4,112.6,441.7,111.2"/>
						<path d="M458.8,117.5L436,105.1c1.1,0.5,2.2,1.1,3.2,1.7l22.8,12.4C461,118.6,459.9,118,458.8,117.5"/>
					</g>
				</g>
				<g class="st1">
					<defs>
						<path id="SVGID_22_" class="st1" d="M133.9,523.5l-22.8-12.4c9.3,5.1,18.7,5.6,32.6,3.6c7.5-1.1,16.4-2.9,27.3-5.1
							c6.1-1.2,12.9-2.6,20.4-4c15.4-2.9,27.2-4.9,36.7-6.4c22.3-3.6,28.3-4.8,30.7-9.7c2.9-6-0.8-12.4-7.2-22.3
							c-7.2-11.4-16.2-25.5-12.7-44.8c4.1-22.8,25.7-49.2,48.6-52.4c1.5-0.2,2.9-0.3,4.4-0.3c5.7,0,11.3,1.5,16.3,4.3l22.8,12.4
							c-5.1-2.8-10.7-4.3-16.3-4.3c-1.5,0-2.9,0.1-4.4,0.3c-22.9,3.2-44.4,29.6-48.6,52.4c-3.5,19.3,5.5,33.5,12.7,44.8
							c6.3,10,10,16.4,7.2,22.3c-2.4,5-8.3,6.1-30.7,9.7c-9.5,1.5-21.3,3.5-36.7,6.4c-7.5,1.4-14.4,2.8-20.4,4
							c-10.9,2.2-19.7,4-27.3,5.1C152.6,529.1,143.2,528.6,133.9,523.5z"/>
					</defs>
					<clipPath id="SVGID_39_">
						<use xlink:href="#SVGID_22_"  style="overflow:visible;"/>
					</clipPath>
					<g class="st30">
						<path d="M133.9,523.5l-22.8-12.4c0.5,0.3,1,0.5,1.5,0.8l22.8,12.4C134.8,524,134.3,523.8,133.9,523.5"/>
						<path d="M135.3,524.3l-22.8-12.4c2.3,1.1,4.6,2,7,2.6l22.8,12.4C140,526.3,137.6,525.4,135.3,524.3"/>
						<path d="M142.4,526.9l-22.8-12.4c6.8,1.8,14.4,1.6,24,0.3c7.5-1.1,16.4-2.9,27.3-5.1c6.1-1.2,12.9-2.6,20.4-4
							c15.4-2.9,27.2-4.9,36.7-6.4c14.5-2.3,22-3.6,26.3-5.6L277,506c-4.2,2-11.8,3.3-26.3,5.6c-9.5,1.5-21.3,3.5-36.7,6.4
							c-7.5,1.4-14.4,2.8-20.4,4c-10.9,2.2-19.7,4-27.3,5.1C156.7,528.5,149.2,528.7,142.4,526.9"/>
						<path d="M277,506l-22.8-12.4c0.7-0.3,1.2-0.6,1.7-1l22.8,12.4C278.3,505.4,277.7,505.7,277,506"/>
						<path d="M278.8,505L256,492.6c0.3-0.2,0.6-0.4,0.9-0.7l22.8,12.4C279.4,504.6,279.1,504.8,278.8,505"/>
						<path d="M279.7,504.3l-22.8-12.4c0.2-0.2,0.4-0.4,0.6-0.6l22.8,12.4C280.1,503.9,279.9,504.1,279.7,504.3"/>
						<path d="M280.3,503.7l-22.8-12.4c0.2-0.2,0.4-0.4,0.5-0.7l22.8,12.4C280.6,503.3,280.5,503.5,280.3,503.7"/>
						<path d="M280.8,503.1L258,490.7c0.2-0.3,0.3-0.5,0.5-0.8l22.8,12.4C281.1,502.5,281,502.8,280.8,503.1"/>
						<path d="M281.3,502.2l-22.8-12.4c0.1-0.1,0.1-0.2,0.2-0.3c0.1-0.3,0.3-0.6,0.4-0.9l22.8,12.4c-0.1,0.3-0.2,0.6-0.4,0.9
							C281.4,502,281.4,502.1,281.3,502.2"/>
						<path d="M281.9,501l-22.8-12.4c2.1-5.7-1.6-12-7.5-21.4c-7.2-11.4-16.2-25.5-12.7-44.8c0.6-3.1,1.4-6.3,2.6-9.4l22.8,12.4
							c-1.2,3.2-2,6.3-2.6,9.4c-3.5,19.3,5.5,33.5,12.7,44.8C280.3,489,284,495.3,281.9,501"/>
						<path d="M264.2,425.3l-22.8-12.4c1.1-3.1,2.5-6.1,4.1-9.1l22.8,12.4C266.8,419.2,265.4,422.3,264.2,425.3"/>
						<path d="M268.4,416.2l-22.8-12.4c1.5-2.7,3.1-5.3,4.9-7.9l22.8,12.4C271.4,410.9,269.8,413.5,268.4,416.2"/>
						<path d="M273.2,408.3l-22.8-12.4c1.7-2.4,3.5-4.7,5.5-7l22.8,12.4C276.8,403.6,274.9,405.9,273.2,408.3"/>
						<path d="M278.7,401.4L255.9,389c1.9-2.1,3.9-4.1,5.9-6l22.8,12.4C282.6,397.2,280.6,399.2,278.7,401.4"/>
						<path d="M284.7,395.4L261.9,383c2.1-1.9,4.2-3.6,6.5-5.1l22.8,12.4C288.9,391.8,286.7,393.5,284.7,395.4"/>
						<path d="M291.1,390.2l-22.8-12.4c2.5-1.7,5-3.2,7.6-4.4l22.8,12.4C296.1,387,293.6,388.5,291.1,390.2"/>
						<path d="M298.7,385.8l-22.8-12.4c3.7-1.8,7.6-3,11.5-3.5c1.5-0.2,2.9-0.3,4.4-0.3c2.8,0,5.5,0.3,8.2,1l22.8,12.4
							c-2.7-0.7-5.4-1.1-8.2-1c-1.5,0-2.9,0.1-4.4,0.3C306.3,382.8,302.5,384.1,298.7,385.8"/>
						<path d="M322.8,383L300,370.6c2.3,0.6,4.6,1.4,6.7,2.5l22.8,12.4C327.4,384.4,325.1,383.6,322.8,383"/>
						<path d="M329.6,385.5l-22.8-12.4c0.5,0.2,0.9,0.5,1.4,0.7l22.8,12.4C330.5,386,330,385.7,329.6,385.5"/>
					</g>
				</g>
				<g>
					<polygon class="st31" points="268.8,258.9 246,246.5 246.2,241.6 269,254 					"/>
				</g>
				<g>
					<polygon class="st32" points="264.6,258.2 241.8,245.8 246,246.5 268.8,258.9 					"/>
				</g>
				<g>
					<polygon class="st33" points="210,375 187.2,362.6 181.9,353.3 204.7,365.7 					"/>
				</g>
				<g class="st1">
					<defs>
						<path id="SVGID_20_" class="st1" d="M99.9,502.3c7.6,4.1,15.2,8.3,22.8,12.4c2.3,2.6,5.4,5.4,9.5,7.9c0.6,0.3,1.1,0.7,1.7,1
							l-22.8-12.4c-0.6-0.3-1.1-0.6-1.7-1C105.3,507.7,102.2,504.9,99.9,502.3z"/>
					</defs>
					<clipPath id="SVGID_41_">
						<use xlink:href="#SVGID_20_"  style="overflow:visible;"/>
					</clipPath>
					<g class="st34">
						<path class="st21" d="M133.9,523.5l-22.8-12.4c-0.6-0.3-1.1-0.6-1.7-1c-10.6-6.4-14.4-14.7-15.5-18c-3.8-11-1.1-22.5,1.5-29.5
							l22.8,12.4c-2.6,7-5.3,18.4-1.5,29.5c1.1,3.3,4.9,11.6,15.5,18C132.7,522.9,133.3,523.2,133.9,523.5"/>
					</g>
				</g>
				<g>
					<polygon class="st35" points="200.2,371.8 177.4,359.4 187.2,362.6 210,375 					"/>
				</g>
				<g class="st1">
					<defs>
						<path id="SVGID_18_" class="st1" d="M295.3,138.9c20.1-17.2,40.6-24.2,52-26.9l22.8,12.4c-1.7,0.4-3.6,0.9-5.7,1.5
							c-7.6-4.1-15.1-8.2-22.7-12.4c1.8,1,3.6,2,5.5,3c0.9,0.5,2,1.1,2.9,1.6c0.9,0.5,2.1,1.1,3,1.6c2,1.1,3.9,2.1,5.9,3.2
							c1.8,1,3.6,2,5.5,3c-11.8,3.5-29.2,10.7-46.4,25.4C310.5,147.2,302.9,143,295.3,138.9z"/>
					</defs>
					<clipPath id="SVGID_43_">
						<use xlink:href="#SVGID_18_"  style="overflow:visible;"/>
					</clipPath>
					<g class="st36">
						<path class="st8" d="M315.6,153.4L292.8,141c4.3-3.9,8.7-7.3,13-10.3l22.8,12.4C324.3,146.1,320,149.5,315.6,153.4"/>
						<path class="st7" d="M328.6,143.2l-22.8-12.4c6.3-4.4,12.5-7.8,18.3-10.5l22.8,12.4C341.2,135.3,335,138.8,328.6,143.2"/>
						<path class="st10" d="M346.9,132.6l-22.8-12.4c9.3-4.4,17.4-6.8,23.2-8.2l22.8,12.4C364.3,125.8,356.2,128.3,346.9,132.6"/>
					</g>
				</g>
				<g>
					<polygon class="st37" points="144.7,446 121.9,433.6 126,431.7 148.8,444.1 					"/>
				</g>
				<g>
					<polygon class="st33" points="148.8,444.1 126,431.7 124.1,427.9 146.8,440.3 					"/>
				</g>
				<g class="st1">
					<defs>
						<path id="SVGID_16_" class="st1" d="M295.3,138.9c7.6,4.1,15.2,8.3,22.8,12.4c-3.6,3.1-7.3,6.6-10.8,10.4
							c-33.5,35.9-37.7,79.8-38.2,92.4l-22.8-12.4c0.5-12.6,4.7-56.4,38.2-92.4C288,145.5,291.7,142,295.3,138.9z"/>
					</defs>
					<clipPath id="SVGID_45_">
						<use xlink:href="#SVGID_16_"  style="overflow:visible;"/>
					</clipPath>
					<g class="st38">
						<path class="st21" d="M269,254l-22.8-12.4c0.3-7.2,1.8-24.4,9.2-44.6l22.8,12.4C270.8,229.6,269.3,246.9,269,254"/>
						<path class="st23" d="M278.2,209.4L255.4,197c2.3-6.2,5.1-12.6,8.6-19.1l22.8,12.4C283.3,196.8,280.5,203.3,278.2,209.4"/>
						<path class="st39" d="M286.8,190.3L264,177.9c2.5-4.7,5.4-9.4,8.7-14.1l22.8,12.4C292.2,181,289.3,185.7,286.8,190.3"/>
						<path class="st40" d="M295.4,176.3l-22.8-12.4c2.8-4,5.9-8,9.4-11.9l22.8,12.4C301.4,168.3,298.3,172.3,295.4,176.3"/>
						<path class="st16" d="M304.8,164.3L282,151.9c0.8-0.9,1.6-1.8,2.4-2.7c2.8-3,5.6-5.7,8.4-8.2l22.8,12.4
							c-2.8,2.5-5.6,5.3-8.4,8.2C306.4,162.6,305.6,163.5,304.8,164.3"/>
						<path class="st8" d="M315.6,153.4L292.8,141c4.3-3.9,8.7-7.3,13-10.3l22.8,12.4C324.3,146.1,320,149.5,315.6,153.4"/>
					</g>
				</g>
				<g class="st1">
					<defs>
						<path id="SVGID_14_" class="st1" d="M98.1,456.4c7.4-14.1,19.1-20.6,23.8-22.8l22.8,12.4c-4.7,2.2-16.4,8.7-23.8,22.8
							c-1.7,3.2-9.7,19.8-4.2,35.7c0.7,2,2.4,6,6.1,10.2c-7-3.8-13.9-7.6-20.9-11.4c-0.3-0.2-0.7-0.4-1-0.6c0,0-0.1-0.1-0.1-0.1
							c-0.1,0-0.2-0.1-0.3-0.1c-0.1,0-0.2-0.1-0.3-0.1c-0.1,0-0.2-0.1-0.2-0.1c-3.7-4.2-5.4-8.2-6.1-10.2
							C88.4,476.2,96.4,459.6,98.1,456.4z"/>
					</defs>
					<clipPath id="SVGID_47_">
						<use xlink:href="#SVGID_14_"  style="overflow:visible;"/>
					</clipPath>
					<g class="st41">
						<path class="st21" d="M133.9,523.5l-22.8-12.4c-0.6-0.3-1.1-0.6-1.7-1c-10.6-6.4-14.4-14.7-15.5-18c-3.8-11-1.1-22.5,1.5-29.5
							l22.8,12.4c-2.6,7-5.3,18.4-1.5,29.5c1.1,3.3,4.9,11.6,15.5,18C132.7,522.9,133.3,523.2,133.9,523.5"/>
						<path class="st23" d="M118.1,475l-22.8-12.4c1.1-3.1,2.2-5.3,2.7-6.2c0.1-0.2,0.2-0.3,0.3-0.5l22.8,12.4
							c-0.1,0.2-0.2,0.3-0.3,0.5C120.3,469.8,119.2,472,118.1,475"/>
						<path class="st39" d="M121.1,468.3l-22.8-12.4c1-1.8,2.1-3.6,3.2-5.2l22.8,12.4C123.2,464.7,122.1,466.5,121.1,468.3"/>
						<path class="st40" d="M124.3,463.2l-22.8-12.4c1.1-1.6,2.3-3.1,3.6-4.5l22.8,12.4C126.6,460,125.4,461.5,124.3,463.2"/>
						<path class="st16" d="M127.8,458.6L105,446.2c1.4-1.6,2.8-3,4.2-4.2l22.8,12.4C130.6,455.7,129.2,457.1,127.8,458.6"/>
						<path class="st8" d="M132,454.4L109.3,442c1.8-1.6,3.6-3,5.3-4.2l22.8,12.4C135.7,451.4,133.9,452.8,132,454.4"/>
						<path class="st7" d="M137.4,450.2l-22.8-12.4c2.8-1.9,5.3-3.3,7-4.1l22.8,12.4C142.7,446.9,140.2,448.3,137.4,450.2"/>
						<path class="st10" d="M144.4,446.1l-22.8-12.4c0.1-0.1,0.2-0.1,0.3-0.1l22.8,12.4C144.6,446,144.5,446.1,144.4,446.1"/>
					</g>
				</g>
				<g class="st1">
					<defs>
						<path id="SVGID_12_" class="st1" d="M262.2,250.1l-22.8-12.4c1.4-17.4,8.1-58.9,40.4-93.5c24.6-26.4,52.2-36.2,66.6-39.6
							l22.8,12.4c-14.4,3.5-42,13.2-66.6,39.6C270.3,191.2,263.6,232.6,262.2,250.1z"/>
					</defs>
					<clipPath id="SVGID_49_">
						<use xlink:href="#SVGID_12_"  style="overflow:visible;"/>
					</clipPath>
					<g class="st42">
						<path d="M262.2,250.1l-22.8-12.4c0.7-9.1,2.9-24.9,9.5-42.7l22.8,12.4C265.1,225.2,262.9,241,262.2,250.1"/>
						<path d="M271.7,207.3l-22.8-12.4c2.4-6.5,5.4-13.4,9.1-20.3l22.8,12.4C277.1,194,274.1,200.8,271.7,207.3"/>
						<path d="M280.8,187.1L258,174.7c2.7-5,5.8-10,9.2-15l22.8,12.4C286.5,177.1,283.5,182.1,280.8,187.1"/>
						<path d="M290,172.1l-22.8-12.4c3-4.3,6.3-8.5,10-12.7l22.8,12.4C296.4,163.5,293,167.8,290,172.1"/>
						<path d="M300,159.4L277.2,147c0.8-0.9,1.7-1.9,2.6-2.8c2.9-3.2,5.9-6.1,8.9-8.8l22.8,12.4c-3,2.7-6,5.6-8.9,8.8
							C301.7,157.5,300.9,158.4,300,159.4"/>
						<path d="M311.5,147.7l-22.8-12.4c4.6-4.2,9.3-7.8,13.9-11l22.8,12.4C320.8,140,316.2,143.6,311.5,147.7"/>
						<path d="M325.4,136.8l-22.8-12.4c6.7-4.7,13.3-8.3,19.5-11.2l22.8,12.4C338.7,128.5,332.1,132.1,325.4,136.8"/>
						<path d="M344.9,125.6l-22.8-12.4c9.7-4.6,18.2-7.2,24.4-8.7l22.8,12.4C363.1,118.4,354.5,121,344.9,125.6"/>
					</g>
				</g>
				<g class="st1">
					<defs>
						<path id="SVGID_10_" class="st1" d="M130.1,530.5l-22.8-12.4c-0.6-0.3-1.3-0.7-1.9-1.1c-11.9-7.2-16.5-16.5-18.2-21.4
							c-6.6-19,2.9-38.6,4.8-42.4c7.1-13.5,17.4-21.1,24-24.8l22.8,12.4c-6.6,3.7-17,11.3-24,24.8c-2,3.7-11.4,23.4-4.8,42.4
							c1.7,4.9,6.3,14.2,18.2,21.4C128.8,529.8,129.4,530.2,130.1,530.5z"/>
					</defs>
					<clipPath id="SVGID_51_">
						<use xlink:href="#SVGID_10_"  style="overflow:visible;"/>
					</clipPath>
					<g class="st43">
						<path d="M130.1,530.5l-22.8-12.4c-0.6-0.3-1.3-0.7-1.9-1.1c-11.9-7.2-16.5-16.5-18.2-21.4c-4.6-13.3-1.4-26.9,1.7-35.1
							l22.8,12.4c-3,8.3-6.3,21.9-1.7,35.1c1.7,4.9,6.3,14.2,18.2,21.4C128.8,529.8,129.4,530.2,130.1,530.5"/>
						<path d="M111.6,472.9l-22.8-12.4c1.3-3.6,2.6-6.1,3.2-7.2c0.1-0.2,0.2-0.4,0.3-0.6l22.8,12.4c-0.1,0.2-0.2,0.4-0.3,0.6
							C114.2,466.8,112.9,469.3,111.6,472.9"/>
						<path d="M115.1,465.1l-22.8-12.4c1.2-2.2,2.4-4.2,3.8-6.1l22.8,12.4C117.5,460.9,116.3,462.9,115.1,465.1"/>
						<path d="M118.8,459L96,446.6c1.3-1.9,2.7-3.7,4.2-5.3l22.8,12.4C121.6,455.3,120.2,457.1,118.8,459"/>
						<path d="M123,453.7l-22.8-12.4c1.6-1.8,3.3-3.5,4.9-5l22.8,12.4C126.3,450.2,124.6,451.8,123,453.7"/>
						<path d="M128,448.7l-22.8-12.4c2.1-1.9,4.2-3.6,6.2-4.9l22.8,12.4C132.2,445.2,130.1,446.8,128,448.7"/>
						<path d="M134.2,443.8l-22.8-12.4c1.7-1.2,3.2-2.1,4.7-2.9l22.8,12.4C137.4,441.7,135.8,442.6,134.2,443.8"/>
					</g>
				</g>
				<g class="st1">
					<defs>
						<path id="SVGID_8_" class="st1" d="M146.8,440.3l-22.8-12.4c-8.5-17.2-4.9-39.9,8.8-55.1c7.5-8.3,17.3-13.5,27.3-14.9
							c5.8-0.8,11.7-0.4,17.3,1.5l22.8,12.4c-5.6-1.9-11.5-2.3-17.3-1.5c-10,1.4-19.7,6.6-27.3,14.9
							C141.9,400.4,138.3,423.1,146.8,440.3z"/>
					</defs>
					<clipPath id="SVGID_53_">
						<use xlink:href="#SVGID_8_"  style="overflow:visible;"/>
					</clipPath>
					<g class="st44">
						<path class="st21" d="M146.8,440.3l-22.8-12.4c-5.7-11.6-6-25.6-1.4-38.2l22.8,12.4C140.8,414.7,141.1,428.7,146.8,440.3"/>
						<path class="st23" d="M145.5,402.1l-22.8-12.4c0.9-2.3,1.9-4.6,3.1-6.8l22.8,12.4C147.3,397.5,146.3,399.7,145.5,402.1"/>
						<path class="st39" d="M148.5,395.2l-22.8-12.4c1-1.8,2-3.5,3.2-5.2l22.8,12.4C150.6,391.7,149.5,393.4,148.5,395.2"/>
						<path class="st40" d="M151.8,390L129,377.6c1.1-1.5,2.3-3,3.5-4.5l22.8,12.4C154,387,152.8,388.5,151.8,390"/>
						<path class="st16" d="M155.3,385.5l-22.8-12.4c0.1-0.1,0.2-0.2,0.3-0.4c1.2-1.3,2.4-2.5,3.7-3.7l22.8,12.4
							c-1.3,1.1-2.5,2.4-3.7,3.7C155.5,385.3,155.4,385.4,155.3,385.5"/>
						<path class="st8" d="M159.3,381.5l-22.8-12.4c1.5-1.4,3.1-2.6,4.8-3.8l22.8,12.4C162.4,378.9,160.8,380.1,159.3,381.5"/>
						<path class="st7" d="M164,377.7l-22.8-12.4c2.1-1.5,4.3-2.7,6.6-3.8l22.8,12.4C168.4,375,166.2,376.3,164,377.7"/>
						<path class="st10" d="M170.6,373.9l-22.8-12.4c3.9-1.9,8.1-3.1,12.3-3.7c5-0.7,10.1-0.5,15,0.8l22.8,12.4
							c-4.9-1.3-9.9-1.5-15-0.8C178.7,370.8,174.6,372.1,170.6,373.9"/>
						<path class="st7" d="M197.8,371.1L175,358.7c0.8,0.2,1.6,0.4,2.4,0.7l22.8,12.4C199.4,371.5,198.6,371.3,197.8,371.1"/>
					</g>
				</g>
				<g class="st1">
					<defs>
						<path id="SVGID_6_" class="st1" d="M204.7,365.7l-22.8-12.4c-17.1-30.1-12.5-70.7,10.4-92.5c10.1-9.7,21.8-13.5,31.5-14.9
							c8.1-1.1,14.8-0.5,18,0l22.8,12.4c-3.1-0.5-9.9-1.1-18,0c-9.7,1.4-21.3,5.2-31.5,14.9C192.2,295,187.6,335.6,204.7,365.7z"/>
					</defs>
					<clipPath id="SVGID_55_">
						<use xlink:href="#SVGID_6_"  style="overflow:visible;"/>
					</clipPath>
					<g class="st45">
						<path class="st21" d="M204.7,365.7l-22.8-12.4c-11.8-20.8-13.3-46.6-5.5-67.8l22.8,12.4C191.4,319.1,192.9,344.9,204.7,365.7"
							/>
						<path class="st23" d="M199.2,297.9l-22.8-12.4c1.2-3.2,2.5-6.3,4.1-9.2l22.8,12.4C201.7,291.7,200.4,294.8,199.2,297.9"/>
						<path class="st39" d="M203.3,288.8l-22.8-12.4c1.2-2.3,2.6-4.5,4-6.6l22.8,12.4C205.9,284.3,204.6,286.5,203.3,288.8"/>
						<path class="st40" d="M207.4,282.2l-22.8-12.4c1.3-1.9,2.7-3.7,4.2-5.4l22.8,12.4C210.1,278.5,208.7,280.3,207.4,282.2"/>
						<path class="st16" d="M211.6,276.8l-22.8-12.4c1.1-1.3,2.3-2.5,3.5-3.6c0.4-0.4,0.8-0.7,1.2-1.1l22.8,12.4
							c-0.4,0.4-0.8,0.7-1.2,1.1C213.9,274.3,212.7,275.5,211.6,276.8"/>
						<path class="st8" d="M216.3,272.1l-22.8-12.4c1.8-1.6,3.6-3,5.5-4.3l22.8,12.4C219.9,269,218,270.5,216.3,272.1"/>
						<path class="st7" d="M221.7,267.8l-22.8-12.4c2.6-1.8,5.2-3.2,7.7-4.5l22.8,12.4C226.9,264.5,224.3,266,221.7,267.8"/>
						<path class="st10" d="M229.5,263.3l-22.8-12.4c5.9-2.8,11.8-4.3,17.1-5c8.1-1.1,14.8-0.5,18,0l22.8,12.4
							c-3.1-0.5-9.9-1.1-18,0C241.3,259,235.4,260.5,229.5,263.3"/>
					</g>
				</g>
				<g>
					<path d="M654.2,349.5c22.8,17,21,47.8,20.8,51.3c-2.5,17.3-9,32.2-18.9,43.5c-12.8,14.6-28.3,21.4-38.7,22.9
						c-15.8,2.2-31.7,4.4-48.6,6.7c-17.2,2.4-34.7,4.8-52.3,7.2c-17.2,2.4-34.6,4.9-51.7,7.5c-59.5,8.9-74,11.4-74.2,11.4
						c-3.7,0.6-7.1,1.2-10.3,1.8c-8.9,1.5-16.3,2.8-22.5,3.7c-17.6,2.5-25.6,1.8-29.9-5.1c-5.5-8.9,0.5-20.8,6.9-33.5
						c7.1-14.2,15.2-30.3,11.5-47.1c-3.7-16.9-17.9-30-32.5-29.9c-1.2,0-2.3,0.1-3.5,0.3c-19.3,2.7-38.1,25.9-41.6,45.3
						c-2.9,16.3,4.8,28.6,11.7,39.4c6.4,10.1,12.4,19.6,7.4,30.1c-4.5,9.3-12.6,10.7-36.8,14.6c-9.4,1.5-21.2,3.4-36.5,6.4
						c-7.5,1.4-14.3,2.8-20.3,4c-10.8,2.2-19.7,4-27.6,5.1c-15.9,2.2-27,1.5-38.4-5.4c-11.9-7.2-16.5-16.5-18.2-21.4
						c-6.6-19,2.9-38.6,4.8-42.4c7.1-13.5,17.4-21.1,24-24.8c-7.7-19.6-3.1-44,12-60.8c8.8-9.8,20.3-15.9,32-17.6
						c3.9-0.5,7.8-0.6,11.7-0.1c-6.4-14.6-8.7-31.2-6.6-47.4c2.5-18.9,10.6-35.7,22.8-47.4c11.7-11.1,24.9-15.5,35.8-17
						c6.2-0.9,11.7-0.8,15.6-0.5c1.4-17.4,8.1-58.9,40.4-93.5c24.6-26.4,52.2-36.2,66.6-39.6c2.2-0.9,13.7-5.5,29.5-7.7
						c22-3.1,52.5-1.7,78.5,20.4c15.6,13.2,26.8,31.6,32.6,53c4.9,18.2,5.6,38.1,2.1,57.8c15.3-12.7,32.7-20.7,50.3-23.2
						c5.4-0.8,10.8-1,16.1-0.7c21.8,1.3,39.9,11.5,49.7,28.1c7.7,13,10.4,30.5,7.6,49.2c-2.4,16-8.7,32.3-18.1,46.8
						C626.9,339.5,641.3,339.9,654.2,349.5z M667.9,401c0.3-3.6,1.5-30.2-18.2-44.9c-11.5-8.6-24.5-8.8-32.7-7.6
						c-3.1,0.4-5.5,1.1-7,1.5l-9.9,2.9l6.8-8.9c23.2-30.4,29.5-70.2,15.1-94.5c-8.8-14.8-25.1-23.9-44.9-25.1
						c-4.9-0.3-9.9-0.1-14.9,0.6c-19,2.7-38,12.5-53.7,28l-8.6,8.5l3-11.8c11.2-44.8-0.4-88.4-30.4-113.8
						c-24.4-20.7-53-22-73.6-19.1c-15.8,2.2-27,6.9-28,7.4c-14.1,3.4-40.2,12.5-63.5,37.5c-33.5,35.9-37.7,79.8-38.2,92.4l-0.2,4.8
						l-4.3-0.6c-3.1-0.5-9.8-1.1-18,0c-9.7,1.4-21.3,5.2-31.5,14.9c-22.9,21.8-27.4,62.5-10.4,92.5l5.3,9.3l-9.8-3.3
						c-5.6-1.9-11.5-2.3-17.3-1.5c-10,1.4-19.7,6.6-27.3,14.9c-13.7,15.2-17.3,37.9-8.8,55.1l1.9,3.8l-4.1,1.9
						c-4.7,2.2-16.4,8.7-23.8,22.8c-1.7,3.2-9.7,19.8-4.2,35.7c1.1,3.3,4.9,11.6,15.5,18c9.9,5.9,19.6,6.7,34.2,4.6
						c7.5-1.1,16.4-2.9,27.3-5.1c6.1-1.2,12.9-2.6,20.4-4c15.4-2.9,27.2-4.9,36.7-6.4c22.3-3.6,28.3-4.8,30.7-9.7
						c2.9-6-0.8-12.4-7.2-22.3c-7.2-11.4-16.2-25.5-12.7-44.8c4.1-22.8,25.7-49.2,48.6-52.4c1.5-0.2,2.9-0.3,4.4-0.3
						c17.6-0.1,34.2,14.9,38.6,35c4.2,19.6-4.9,38-12.3,52.7c-6.3,12.6-10,20.6-6.9,25.6c2.5,4.1,9.4,4.4,23.4,2.4
						c6.1-0.9,13.6-2.1,22.8-3.7c3.2-0.6,6.7-1.1,10.4-1.8c0.1,0,14.7-2.5,74.3-11.4c17.2-2.6,34.5-5.1,51.8-7.5
						c17.6-2.5,35.1-4.9,52.3-7.2c16.9-2.3,32.8-4.5,48.6-6.7c8.6-1.2,22.5-7.2,33.8-20.1C659.9,429.4,665.6,416.1,667.9,401"/>
				</g>
				<g>
					<path class="st46" d="M398.8,116.8c20.7-2.9,49.3-1.6,73.6,19.1c30,25.5,41.6,69.1,30.4,113.8l-3,11.8l8.6-8.5
						c15.7-15.6,34.6-25.4,53.7-28c5-0.7,9.9-0.9,14.9-0.6c19.8,1.2,36.2,10.3,44.9,25.1c14.4,24.4,8.1,64.1-15.1,94.5l-6.8,8.9
						l9.9-2.9c1.4-0.4,3.9-1,7-1.5c8.2-1.2,21.2-1,32.7,7.6c19.7,14.7,18.5,41.3,18.2,44.9c-2.2,15.2-8,28.4-16.6,38.3
						c-11.3,12.9-25.3,18.9-33.8,20.1c-15.8,2.2-31.7,4.4-48.6,6.7c-17.2,2.4-34.7,4.8-52.3,7.2c-17.3,2.4-34.6,4.9-51.8,7.5
						c-59.6,8.9-74.1,11.4-74.3,11.4c-3.7,0.6-7.1,1.2-10.4,1.8c-9.1,1.6-16.6,2.8-22.8,3.7c-14,2-20.8,1.7-23.4-2.4
						c-3.1-5,0.6-13,6.9-25.6c7.4-14.8,16.6-33.1,12.3-52.7c-4.3-20.1-20.9-35.1-38.6-35c-1.5,0-2.9,0.1-4.4,0.3
						c-22.9,3.2-44.4,29.6-48.6,52.4c-3.5,19.3,5.5,33.5,12.7,44.8c6.3,10,10,16.4,7.2,22.3c-2.4,5-8.3,6.1-30.7,9.7
						c-9.5,1.5-21.3,3.5-36.7,6.4c-7.5,1.4-14.4,2.8-20.4,4c-10.9,2.2-19.7,4-27.3,5.1c-14.7,2.1-24.4,1.3-34.2-4.6
						c-10.6-6.4-14.4-14.7-15.5-18c-5.5-15.9,2.5-32.5,4.2-35.7c7.4-14.1,19.1-20.6,23.8-22.8l4.1-1.9l-1.9-3.8
						c-8.5-17.2-4.9-39.9,8.8-55.1c7.5-8.3,17.3-13.5,27.3-14.9c5.8-0.8,11.7-0.4,17.3,1.5l9.8,3.3l-5.3-9.3
						c-17.1-30.1-12.5-70.7,10.4-92.5c10.1-9.7,21.8-13.5,31.5-14.9c8.1-1.1,14.8-0.5,18,0l4.3,0.6l0.2-4.8
						c0.5-12.6,4.7-56.4,38.2-92.4c23.3-25,49.4-34.1,62.9-37.3C371.8,123.8,382.9,119,398.8,116.8z"/>
				</g>
				<g class="st1">
					<defs>
						<path id="SVGID_4_" class="st1" d="M138.8,440.9L116,428.5c-7.7-19.6-3.1-44,12-60.8c8.8-9.8,20.3-15.9,32-17.6
							c3.9-0.5,7.8-0.6,11.7-0.1l22.8,12.4c-3.9-0.5-7.8-0.4-11.7,0.1c-11.7,1.6-23.2,7.7-32,17.6
							C135.7,396.9,131.1,421.3,138.8,440.9z"/>
					</defs>
					<clipPath id="SVGID_57_">
						<use xlink:href="#SVGID_4_"  style="overflow:visible;"/>
					</clipPath>
					<g class="st47">
						<path d="M138.8,440.9L116,428.5c-5-12.7-4.8-27.5,0.1-40.9l22.8,12.4C134,413.4,133.8,428.2,138.8,440.9"/>
						<path d="M138.9,400l-22.8-12.4c1-2.7,2.2-5.4,3.6-8l22.8,12.4C141.1,394.6,139.9,397.3,138.9,400"/>
						<path d="M142.5,392l-22.8-12.4c1.1-2.1,2.4-4.2,3.8-6.2l22.8,12.4C144.9,387.8,143.6,389.9,142.5,392"/>
						<path d="M146.3,385.8l-22.8-12.4c1.3-1.8,2.7-3.6,4.2-5.3l22.8,12.4C149,382.2,147.6,384,146.3,385.8"/>
						<path d="M150.5,380.6l-22.8-12.4c0.1-0.1,0.3-0.3,0.4-0.4c1.4-1.5,2.8-3,4.3-4.3l22.8,12.4c-1.5,1.3-2.9,2.8-4.3,4.3
							C150.7,380.3,150.6,380.4,150.5,380.6"/>
						<path d="M155.2,375.8l-22.8-12.4c1.8-1.6,3.7-3.1,5.6-4.5l22.8,12.4C158.9,372.7,157,374.2,155.2,375.8"/>
						<path d="M160.8,371.3L138,358.9c2.5-1.7,5.1-3.2,7.7-4.5l22.8,12.4C165.9,368.1,163.3,369.6,160.8,371.3"/>
						<path d="M168.5,366.9l-22.8-12.4c4.6-2.2,9.5-3.6,14.4-4.3c3.9-0.5,7.8-0.6,11.7-0.1l22.8,12.4c-3.9-0.5-7.8-0.4-11.7,0.1
							C178,363.3,173.1,364.7,168.5,366.9"/>
					</g>
				</g>
				<g class="st1">
					<defs>
						<path id="SVGID_2_" class="st1" d="M194.6,362.4L171.8,350c-6.4-14.6-8.7-31.2-6.6-47.4c2.5-18.9,10.6-35.7,22.8-47.4
							c11.7-11.1,24.9-15.5,35.8-17c6.2-0.9,11.7-0.8,15.6-0.5l22.8,12.4c-3.9-0.3-9.4-0.4-15.6,0.5c-10.9,1.5-24.2,5.9-35.8,17
							c-12.3,11.7-20.4,28.5-22.8,47.4C185.8,331.3,188.2,347.8,194.6,362.4z"/>
					</defs>
					<clipPath id="SVGID_58_">
						<use xlink:href="#SVGID_2_"  style="overflow:visible;"/>
					</clipPath>
					<g class="st48">
						<path d="M194.6,362.4L171.8,350c-6.4-14.6-8.7-31.2-6.6-47.4c0.9-6.7,2.4-13.1,4.7-19.1l22.8,12.4c-2.2,6-3.8,12.4-4.7,19.1
							C185.8,331.3,188.2,347.8,194.6,362.4"/>
						<path d="M192.6,296l-22.8-12.4c1.3-3.6,2.9-7.1,4.7-10.4l22.8,12.4C195.5,288.8,193.9,292.3,192.6,296"/>
						<path d="M197.3,285.5l-22.8-12.4c1.4-2.6,3-5.2,4.7-7.6L202,278C200.3,280.4,198.7,282.9,197.3,285.5"/>
						<path d="M202,278l-22.8-12.4c1.5-2.2,3.1-4.2,4.9-6.2l22.8,12.4C205.1,273.7,203.5,275.8,202,278"/>
						<path d="M206.8,271.8L184,259.4c1.3-1.4,2.6-2.8,4-4.1c0.5-0.4,0.9-0.9,1.4-1.3l22.8,12.4c-0.5,0.4-0.9,0.8-1.4,1.3
							C209.4,269,208.1,270.3,206.8,271.8"/>
						<path d="M212.2,266.4L189.4,254c2.1-1.9,4.2-3.5,6.3-5l22.8,12.4C216.3,262.9,214.2,264.5,212.2,266.4"/>
						<path d="M218.5,261.4L195.7,249c2.9-2,5.9-3.7,8.9-5.1l22.8,12.4C224.4,257.7,221.4,259.4,218.5,261.4"/>
						<path d="M227.4,256.3l-22.8-12.4c6.7-3.2,13.3-4.8,19.3-5.7c6.2-0.9,11.7-0.8,15.6-0.5l22.8,12.4c-3.9-0.3-9.4-0.4-15.6,0.5
							C240.7,251.4,234,253.1,227.4,256.3"/>
					</g>
				</g>
			</g>
		</g>
	</g>
	<path class="st4" d="M398.5,392.2"/>
	<path class="st4" d="M177.5,215.2"/>
</g>
</svg>
